<svg width="1494" height="234" viewBox="0 0 1494 234" fill="none" xmlns="http://www.w3.org/2000/svg">
<path d="M361.94 192.706C353.708 192.706 347.06 190.569 341.995 186.295C336.929 182.021 334.396 175.215 334.396 165.875V24.1228H359.565V163.501C359.565 166.35 360.278 168.487 361.702 169.912C363.285 171.336 365.501 172.049 368.351 172.049H378.323V192.706H361.94Z" fill="#1A1A1A"/>
<path d="M432.79 195.555C421.076 195.555 411.262 192.627 403.347 186.77C395.591 180.755 389.734 172.761 385.777 162.788C381.977 152.816 380.078 141.735 380.078 129.547C380.078 117.516 381.977 106.515 385.777 96.5423C389.576 86.5698 395.353 78.5759 403.11 72.5608C411.024 66.5456 420.918 63.538 432.79 63.538C441.971 63.538 449.807 65.3584 456.297 68.9991C462.945 72.6399 468.01 77.7053 471.493 84.1954V66.3873H496.662V192.706H473.155L472.205 163.976L475.054 166.825C473.313 172.682 470.464 177.747 466.507 182.021C462.707 186.295 457.959 189.619 452.26 191.994C446.561 194.368 440.071 195.555 432.79 195.555ZM439.438 173.711C447.353 173.711 453.606 171.653 458.196 167.537C462.945 163.422 466.348 157.96 468.406 151.154C470.464 144.347 471.493 137.145 471.493 129.547C471.493 121.474 470.464 114.113 468.406 107.465C466.348 100.816 462.945 95.5134 458.196 91.5561C453.606 87.4404 447.353 85.3826 439.438 85.3826C431.84 85.3826 425.508 87.4404 420.443 91.5561C415.536 95.5134 411.895 100.816 409.521 107.465C407.305 114.113 406.196 121.474 406.196 129.547C406.196 137.145 407.305 144.347 409.521 151.154C411.895 157.96 415.536 163.422 420.443 167.537C425.35 171.653 431.682 173.711 439.438 173.711Z" fill="#1A1A1A"/>
<path d="M511.003 192.706V66.3873H534.034L534.984 99.8665L532.847 99.1542C534.588 87.757 538.071 79.4466 543.295 74.2228C548.677 68.9991 555.879 66.3873 564.902 66.3873H577.011V88.9442H564.902C558.57 88.9442 553.267 89.9731 548.993 92.0309C544.719 94.0888 541.474 97.2546 539.258 101.529C537.2 105.803 536.171 111.343 536.171 118.149V192.706H511.003Z" fill="#1A1A1A"/>
<path d="M588.746 228.322V66.3873H612.49L613.203 93.4556L610.353 92.0309C613.519 82.6916 618.743 75.6475 626.024 70.8987C633.306 65.9916 641.695 63.538 651.193 63.538C663.54 63.538 673.671 66.6247 681.586 72.7982C689.659 78.8134 695.595 86.8072 699.394 96.7798C703.351 106.752 705.33 117.675 705.33 129.547C705.33 141.419 703.351 152.341 699.394 162.314C695.595 172.286 689.659 180.359 681.586 186.533C673.671 192.548 663.54 195.555 651.193 195.555C644.861 195.555 638.925 194.447 633.385 192.231C627.845 190.015 623.096 186.928 619.139 182.971C615.339 178.855 612.648 174.027 611.066 168.487L613.915 165.638V228.322H588.746ZM646.682 173.711C656.813 173.711 664.727 169.833 670.426 162.076C676.283 154.32 679.211 143.477 679.211 129.547C679.211 115.617 676.283 104.774 670.426 97.0172C664.727 89.2608 656.813 85.3826 646.682 85.3826C640.033 85.3826 634.256 87.0447 629.349 90.3688C624.441 93.5347 620.642 98.4418 617.951 105.09C615.26 111.739 613.915 119.891 613.915 129.547C613.915 139.203 615.181 147.355 617.714 154.003C620.405 160.651 624.204 165.638 629.111 168.962C634.176 172.128 640.033 173.711 646.682 173.711Z" fill="#1A1A1A"/>
<path d="M775.763 195.555C763.732 195.555 753.206 192.864 744.183 187.482C735.16 182.1 728.195 174.423 723.288 164.451C718.381 154.478 715.927 142.843 715.927 129.547C715.927 116.092 718.381 104.457 723.288 94.6428C728.195 84.8286 735.16 77.2304 744.183 71.8484C753.206 66.3081 763.732 63.538 775.763 63.538C787.793 63.538 798.319 66.3081 807.342 71.8484C816.365 77.2304 823.33 84.8286 828.237 94.6428C833.144 104.457 835.598 116.092 835.598 129.547C835.598 142.843 833.144 154.478 828.237 164.451C823.33 174.423 816.365 182.1 807.342 187.482C798.319 192.864 787.793 195.555 775.763 195.555ZM775.763 173.711C786.527 173.711 794.837 169.833 800.694 162.076C806.551 154.161 809.479 143.318 809.479 129.547C809.479 115.775 806.551 105.011 800.694 97.2546C794.837 89.3399 786.527 85.3826 775.763 85.3826C765.157 85.3826 756.846 89.3399 750.831 97.2546C744.974 105.011 742.046 115.775 742.046 129.547C742.046 143.318 744.974 154.161 750.831 162.076C756.846 169.833 765.157 173.711 775.763 173.711Z" fill="#1A1A1A"/>
<path d="M841.27 192.706V162.788H871.9V192.706H841.27Z" fill="#1A1A1A"/>
<path d="M936.458 195.555C924.586 195.555 914.535 193.735 906.303 190.094C898.23 186.453 891.978 181.467 887.545 175.135C883.113 168.645 880.581 161.205 879.947 152.816L905.828 151.629C907.095 158.594 910.102 164.134 914.851 168.25C919.6 172.365 926.802 174.423 936.458 174.423C944.373 174.423 950.626 173.157 955.216 170.624C959.807 168.091 962.102 164.055 962.102 158.514C962.102 155.507 961.31 152.974 959.728 150.916C958.303 148.7 955.454 146.88 951.18 145.455C946.906 143.872 940.574 142.368 932.184 140.944C919.679 138.569 909.865 135.799 902.742 132.633C895.618 129.467 890.553 125.431 887.545 120.524C884.538 115.617 883.034 109.681 883.034 102.716C883.034 91.1603 887.308 81.7418 895.856 74.4603C904.562 67.1788 917.067 63.538 933.372 63.538C944.294 63.538 953.475 65.4375 960.915 69.2366C968.355 72.8773 974.132 77.8636 978.248 84.1954C982.522 90.3689 985.213 97.3338 986.321 105.09L960.44 106.515C959.648 102.083 958.065 98.2836 955.691 95.1177C953.475 91.7935 950.467 89.2608 946.668 87.5196C942.869 85.62 938.358 84.6703 933.134 84.6703C925.061 84.6703 919.046 86.2532 915.089 89.4191C911.131 92.585 909.153 96.7006 909.153 101.766C909.153 105.565 910.023 108.652 911.764 111.026C913.664 113.401 916.672 115.379 920.787 116.962C924.903 118.387 930.364 119.653 937.171 120.761C950.309 122.977 960.598 125.748 968.038 129.072C975.478 132.238 980.702 136.195 983.709 140.944C986.717 145.693 988.22 151.47 988.22 158.277C988.22 166.192 986.004 172.919 981.572 178.46C977.14 184 971.046 188.274 963.289 191.281C955.533 194.131 946.589 195.555 936.458 195.555Z" fill="#1A1A1A"/>
<path d="M1045.62 192.706C1033.59 192.706 1024.73 189.936 1019.03 184.396C1013.33 178.855 1010.48 170.228 1010.48 158.514V36.7071H1035.65V156.615C1035.65 162.472 1036.91 166.508 1039.45 168.724C1041.98 170.941 1045.86 172.049 1051.08 172.049H1069.13V192.706H1045.62ZM991.246 87.0447V66.3873H1069.13V87.0447H991.246Z" fill="#1A1A1A"/>
<path d="M1123.32 195.555C1110.66 195.555 1100.53 191.361 1092.93 182.971C1085.49 174.423 1081.77 162.63 1081.77 147.592V66.3873H1106.94V141.181C1106.94 152.578 1108.92 160.968 1112.88 166.35C1116.83 171.732 1122.85 174.423 1130.92 174.423C1140.1 174.423 1147.23 171.495 1152.29 165.638C1157.51 159.623 1160.13 151.233 1160.13 140.469V66.3873H1185.29V192.706H1161.79L1161.31 159.702L1164.87 161.126C1162.66 172.207 1157.99 180.755 1150.87 186.77C1143.74 192.627 1134.56 195.555 1123.32 195.555Z" fill="#1A1A1A"/>
<path d="M1251.58 195.555C1240.82 195.555 1231.4 192.864 1223.33 187.482C1215.41 182.1 1209.32 174.502 1205.04 164.688C1200.93 154.715 1198.87 143.002 1198.87 129.547C1198.87 116.092 1201.01 104.457 1205.28 94.6428C1209.55 84.6703 1215.65 76.993 1223.56 71.611C1231.48 66.229 1240.82 63.538 1251.58 63.538C1260.29 63.538 1268.04 65.3584 1274.85 68.9991C1281.66 72.6399 1286.8 77.7053 1290.28 84.1954V24.1228H1315.45V192.706H1291.95L1291.23 173.711C1287.75 180.517 1282.45 185.899 1275.33 189.857C1268.36 193.656 1260.45 195.555 1251.58 195.555ZM1258.23 173.711C1265.04 173.711 1270.81 171.969 1275.56 168.487C1280.31 165.005 1283.95 159.939 1286.49 153.291C1289.02 146.642 1290.28 138.728 1290.28 129.547C1290.28 120.049 1289.02 112.055 1286.49 105.565C1283.95 98.9167 1280.31 93.9305 1275.56 90.6063C1270.81 87.1238 1265.04 85.3826 1258.23 85.3826C1248.1 85.3826 1240.03 89.3399 1234.01 97.2546C1228 105.011 1224.99 115.775 1224.99 129.547C1224.99 143.16 1228 153.924 1234.01 161.839C1240.03 169.753 1248.1 173.711 1258.23 173.711Z" fill="#1A1A1A"/>
<path d="M1332.74 192.706V66.3873H1357.91V192.706H1332.74ZM1332.27 48.1043V22.9355H1358.39V48.1043H1332.27Z" fill="#1A1A1A"/>
<path d="M1433.68 195.555C1421.65 195.555 1411.12 192.864 1402.1 187.482C1393.08 182.1 1386.11 174.423 1381.2 164.451C1376.3 154.478 1373.84 142.843 1373.84 129.547C1373.84 116.092 1376.3 104.457 1381.2 94.6428C1386.11 84.8286 1393.08 77.2304 1402.1 71.8484C1411.12 66.3081 1421.65 63.538 1433.68 63.538C1445.71 63.538 1456.24 66.3081 1465.26 71.8484C1474.28 77.2304 1481.25 84.8286 1486.15 94.6428C1491.06 104.457 1493.51 116.092 1493.51 129.547C1493.51 142.843 1491.06 154.478 1486.15 164.451C1481.25 174.423 1474.28 182.1 1465.26 187.482C1456.24 192.864 1445.71 195.555 1433.68 195.555ZM1433.68 173.711C1444.44 173.711 1452.75 169.833 1458.61 162.076C1464.47 154.161 1467.4 143.318 1467.4 129.547C1467.4 115.775 1464.47 105.011 1458.61 97.2546C1452.75 89.3399 1444.44 85.3826 1433.68 85.3826C1423.07 85.3826 1414.76 89.3399 1408.75 97.2546C1402.89 105.011 1399.96 115.775 1399.96 129.547C1399.96 143.318 1402.89 154.161 1408.75 162.076C1414.76 169.833 1423.07 173.711 1433.68 173.711Z" fill="#1A1A1A"/>
<path d="M152.078 0.0832278C155.504 -0.362742 159.473 1.04195 162.342 2.901C173.865 10.3682 166.898 24.6675 178.059 32.6829C188.803 40.7808 201.213 28.8726 212.083 36.757C220.27 42.6955 223.899 61.415 217.975 69.7415C212.42 77.5482 199.645 78.2141 190.768 79.8398L168.832 83.996C159.944 85.6899 149.94 89.1714 142.262 83.0854C136.18 78.2647 135.77 72.3271 134.473 65.3368L131.818 51.172L128.245 32.1707C126.61 23.4536 123.818 15.5321 130.02 7.98495C135.055 1.85677 144.801 0.866191 152.078 0.0832278Z" fill="#1A1A1A"/>
<path d="M218.715 90.0012C222.091 89.8134 224.93 90.2672 228.006 91.7675C230.032 92.7433 231.838 94.1223 233.315 95.8198C235.204 97.9756 240.401 107.392 241.345 110.164C242.326 113.063 242.547 116.165 241.985 119.173C239.401 132.689 223.937 131.489 218.988 142.414C214.031 152.484 221.448 159.311 224.582 167.909C229.558 181.563 216.233 189.698 205.494 193.78C200.858 195.541 196.208 194.683 192.053 192.572C188.736 190.74 186.184 187.712 184.411 184.398C176.451 169.521 168.14 154.834 160.225 139.936C156.162 132.998 158.329 122.075 165.587 117.844C180.947 108.889 197.149 100.379 212.818 91.9111C214.583 90.9571 216.779 90.3502 218.715 90.0012Z" fill="#1A1A1A"/>
<path d="M81.308 1.95175C85.2806 1.43592 90.8533 2.48574 94.8346 3.0175C99.623 3.66354 104.109 5.81264 106.946 9.82581C109.113 12.8903 110.619 17.3 110.211 21.0852C108.347 38.3704 105.823 55.6537 103.674 72.9105C102.835 79.6481 99.6244 84.5854 93.3299 87.433C88.7892 89.5525 84.4066 88.7262 79.6264 88.1551C70.3977 86.723 60.6704 86.0806 51.4897 84.4834C40.1259 83.2256 21.8554 83.4198 18.875 69.5411C17.6773 63.9634 19.2648 51.0959 22.3094 46.1945C23.7806 43.8037 25.8587 41.8451 28.332 40.5176C37.0731 35.7902 45.0458 41.051 53.2314 39.0746C56.1562 38.3794 58.8337 36.8945 60.9722 34.7817C71.3064 24.5677 60.8459 6.6758 81.308 1.95175Z" fill="#1A1A1A"/>
<path d="M20.8623 95.9187C23.1352 95.8712 26.5733 96.757 28.7212 97.785C44.803 105.481 61.3793 112.869 77.2476 120.922C84.4186 124.561 87.1906 135.161 83.6893 142.504C76.0114 158.604 68.5383 175.422 60.3865 191.324C59.3965 193.263 56.8828 195.244 55.1008 196.512C53.021 197.756 50.6062 198.639 48.1992 198.936C46.1661 199.187 44.1041 199.057 42.1188 198.553C38.2923 197.609 30.0983 193.503 26.6803 191.174C24.1922 189.479 22.0336 186.133 20.9897 183.227C16.9142 171.88 28.2294 164.355 26.7812 153.658C24.9934 140.453 13.4238 140.206 6.347 134.595C2.80858 131.843 0.544643 127.768 0.0782742 123.31C-0.0639557 121.957 -0.0508244 118.71 0.446561 117.464C4.81517 106.527 7.55386 97.1803 20.8623 95.9187Z" fill="#1A1A1A"/>
<path d="M121.537 155.404C122.128 155.338 122.6 155.337 123.194 155.35C126.328 155.445 129.382 156.366 132.046 158.019C134.358 159.479 137.849 162.991 139.939 164.956L151.748 176.099C158.691 182.684 165.819 189.242 172.691 195.91C175.897 199.021 177.772 203.805 177.612 208.432C177.324 216.786 171.038 221.664 165.667 227.185C163.19 229.733 159.214 231.641 155.674 232.024C140.443 233.667 139.383 217.865 124.779 217.289C110.11 217.368 109.566 231.208 96.6978 233.723C88.4141 235.341 82.1895 229.554 76.8574 224.245C73.3885 220.791 71.126 217.977 70.3112 213.021C68.8199 203.95 74.4384 198.925 80.0384 193.035L89.8813 182.642L103.697 167.982C109.386 161.942 112.831 156.754 121.537 155.404Z" fill="#1A1A1A"/>
</svg>
